<svg width="24" height="24" viewBox="0 0 24 24" fill="none" xmlns="http://www.w3.org/2000/svg">
<path d="M18.5763 13.4529C17.9161 10.1303 21.0697 8.18172 21.0697 8.18172C21.0697 8.18172 19.841 6.40407 17.7761 5.94676C15.7121 5.48844 14.6791 6.06107 13.6481 6.49054C12.6161 6.92107 12.1012 6.92107 12.1012 6.92107C10.6119 6.92107 9.52328 5.34425 6.68586 6.06212C4.73108 6.55543 2.67326 8.81201 2.30146 11.5053C1.92966 14.1996 2.73199 17.6374 4.27892 20.3019C5.82585 22.9683 7.40167 23.9704 8.52013 23.9993C9.63863 24.0271 10.7551 23.198 12.1012 22.9961C13.4484 22.7963 14.2774 23.4843 15.5988 23.8561C16.915 24.2269 17.3764 23.8829 18.8925 22.5934C20.4126 21.304 21.7886 17.6055 21.7886 17.6055C21.7886 17.6055 19.2365 16.7774 18.5763 13.4529Z" fill="black"/>
<path d="M15.6534 3.79731C17.1158 2.30705 16.6205 0 16.6205 0C16.6205 0 14.5668 0.360484 13.1908 1.79206C11.8159 3.22469 12.0435 5.48743 12.0435 5.48743C12.0435 5.48743 14.1909 5.28661 15.6534 3.79731Z" fill="black"/>
</svg>
