<svg width="24" height="24" viewBox="0 0 24 24" fill="none" xmlns="http://www.w3.org/2000/svg">
<circle cx="11.9994" cy="12.0004" r="11.9994" fill="black"/>
<path d="M16.3039 12.3837C15.8719 10.2091 17.9359 8.93375 17.9359 8.93375C17.9359 8.93375 17.1317 7.7703 15.7802 7.47099C14.4294 7.17103 13.7533 7.5458 13.0785 7.82689C12.4031 8.10867 12.066 8.10867 12.066 8.10867C11.0913 8.10867 10.3788 7.07666 8.52177 7.54649C7.24238 7.86936 5.89556 9.34627 5.65222 11.109C5.40888 12.8724 5.934 15.1224 6.94645 16.8663C7.9589 18.6115 8.99026 19.2673 9.72228 19.2862C10.4543 19.3044 11.185 18.7618 12.066 18.6296C12.9478 18.4989 13.4904 18.9492 14.3552 19.1925C15.2167 19.4352 15.5186 19.21 16.5109 18.3661C17.5058 17.5221 18.4064 15.1015 18.4064 15.1015C18.4064 15.1015 16.736 14.5596 16.3039 12.3837Z" fill="white"/>
<path d="M14.3909 6.0644C15.3481 5.08904 15.0239 3.5791 15.0239 3.5791C15.0239 3.5791 13.6798 3.81503 12.7792 4.75199C11.8793 5.68963 12.0283 7.17057 12.0283 7.17057C12.0283 7.17057 13.4337 7.03914 14.3909 6.0644Z" fill="white"/>
</svg>
