<svg width="14" height="16" viewBox="0 0 14 16" fill="none" xmlns="http://www.w3.org/2000/svg">
<path d="M4.00001 5.11324V4.46658C4.00001 2.96658 5.20667 1.49324 6.70667 1.35324C7.12346 1.31229 7.5442 1.35906 7.94181 1.49053C8.33943 1.62201 8.70512 1.83527 9.01534 2.11661C9.32556 2.39794 9.57344 2.74111 9.74303 3.12402C9.91261 3.50694 10.0002 3.92112 10 4.33991V5.25991M1.54001 11.0399L1.69334 12.2866C1.84001 13.5932 2.32001 14.6666 5.00001 14.6666H9.00001C11.68 14.6666 12.16 13.5932 12.3 12.2866L12.8 8.28658C12.98 6.65991 12.5133 5.33324 9.66667 5.33324H4.33334C1.48667 5.33324 1.02001 6.65991 1.20001 8.28658" stroke="white" stroke-width="1.5" stroke-miterlimit="10" stroke-linecap="round" stroke-linejoin="round"/>
</svg>
