<svg width="22" height="22" viewBox="0 0 22 22" fill="none" xmlns="http://www.w3.org/2000/svg">
<path d="M13.6589 19.0099L12.1389 20.5299C11.5189 21.1499 10.4989 21.1499 9.87893 20.5299L8.35893 19.0099C8.09893 18.7499 7.58893 18.5399 7.22893 18.5399H5.07893C4.19893 18.5399 3.47893 17.8199 3.47893 16.9399V14.7899C3.47893 14.4299 3.26893 13.9199 3.00893 13.6599L1.48893 12.1399C0.868926 11.5199 0.868926 10.4999 1.48893 9.87991L3.00893 8.35991C3.26893 8.09991 3.47893 7.58991 3.47893 7.22991V5.07991C3.47893 4.19991 4.19893 3.47991 5.07893 3.47991M8.33993 2.98891L9.85993 1.46891C10.4799 0.848906 11.4999 0.848906 12.1199 1.46891L13.6399 2.98891C13.8999 3.24891 14.4099 3.45891 14.7699 3.45891H16.9199C17.7999 3.45891 18.5199 4.17891 18.5199 5.05891V7.20891C18.5199 7.56891 18.7299 8.07891 18.9899 8.33891L20.5099 9.85891C21.1299 10.4789 21.1299 11.4989 20.5099 12.1189L18.9899 13.6389C18.7299 13.8989 18.5199 14.4089 18.5199 14.7689V16.9189C18.5199 17.7989 17.7999 18.5189 16.9199 18.5189M7.99993 13.9999L13.9999 7.99991" stroke="url(#paint0_linear_61_6120)" stroke-width="1.5" stroke-linecap="round" stroke-linejoin="round"/>
<defs>
<linearGradient id="paint0_linear_61_6120" x1="1.02393" y1="-1.49497" x2="22.3424" y2="0.510253" gradientUnits="userSpaceOnUse">
<stop stop-color="#00326D"/>
<stop offset="0.474412" stop-color="#1179F5"/>
<stop offset="1" stop-color="#00326D"/>
</linearGradient>
</defs>
</svg>
