<svg width="18" height="18" viewBox="0 0 18 18" fill="none" xmlns="http://www.w3.org/2000/svg">
<path d="M9 0.25C4.16797 0.25 0.25 4.16797 0.25 9C0.25 13.832 4.16797 17.75 9 17.75C13.832 17.75 17.75 13.832 17.75 9C17.75 4.16797 13.832 0.25 9 0.25ZM13.4883 6.07422L8.05469 13.0469C8.01172 13.0898 7.94141 13.1836 7.85547 13.1836C7.76562 13.1836 7.70703 13.1211 7.65625 13.0703C7.60547 13.0195 4.57422 10.1055 4.57422 10.1055L4.51562 10.0469C4.49219 10.0117 4.47266 9.96875 4.47266 9.92188C4.47266 9.875 4.49219 9.83203 4.51562 9.79688C4.53125 9.78125 4.54297 9.76953 4.55859 9.75C4.85938 9.43359 5.46875 8.79297 5.50781 8.75391C5.55859 8.70312 5.60156 8.63672 5.69531 8.63672C5.79297 8.63672 5.85547 8.71875 5.90234 8.76562C5.94922 8.8125 7.66016 10.457 7.66016 10.457L12.0078 4.87109C12.0469 4.83984 12.0938 4.81641 12.1445 4.81641C12.1953 4.81641 12.2422 4.83594 12.2812 4.86719L13.4766 5.80859C13.5078 5.84766 13.5273 5.89453 13.5273 5.94531C13.5312 5.99609 13.5117 6.03906 13.4883 6.07422Z" fill="#16D456"/>
</svg>
