<svg width="21" height="21" viewBox="0 0 21 21" fill="none" xmlns="http://www.w3.org/2000/svg">
<path fill-rule="evenodd" clip-rule="evenodd" d="M18.7918 15.2678L17.6309 14.1069L16.47 15.2678L14.7287 13.5265C15.6408 12.3656 16.2213 10.7902 16.2213 9.21472C16.2213 5.31754 13.0704 2.16663 9.17318 2.16663C5.276 2.16663 2.20801 5.31754 2.20801 9.21472C2.20801 13.1119 5.35892 16.2628 9.2561 16.2628C10.9145 16.2628 12.407 15.6824 13.5679 14.7703L15.3092 16.5116L14.1483 17.6724L15.3092 18.8333L16.47 17.6724L17.6309 18.8333L18.7918 17.6724L17.6309 16.5116L18.7918 15.2678ZM13.402 12.4485L13.0704 12.9461L12.5729 13.3607C11.6607 14.1069 10.4999 14.5215 9.2561 14.5215C6.27103 14.5215 3.86638 12.1169 3.86638 9.21472C3.86638 6.22964 6.27103 3.825 9.2561 3.825C12.2412 3.825 14.6458 6.22964 14.6458 9.21472C14.5629 10.3756 14.1483 11.5364 13.402 12.4485Z" fill="#F7F7F3"/>
</svg>
