<svg width="20" height="21" viewBox="0 0 20 21" fill="none" xmlns="http://www.w3.org/2000/svg">
<path fill-rule="evenodd" clip-rule="evenodd" d="M13.3333 2.16663V3.83329H15.5L12.4166 6.91663C11.3333 5.99996 9.91663 5.49996 8.33329 5.49996C4.66663 5.49996 1.66663 8.49996 1.66663 12.1666C1.66663 15.8333 4.66663 18.8333 8.33329 18.8333C12 18.8333 15 15.8333 15 12.1666C15 10.5833 14.5 9.16663 13.5833 8.08329L16.6666 4.99996V7.16663H18.3333V2.16663H13.3333ZM8.33329 17.1666C5.58329 17.1666 3.33329 14.9166 3.33329 12.1666C3.33329 9.41663 5.58329 7.16663 8.33329 7.16663C11.0833 7.16663 13.3333 9.41663 13.3333 12.1666C13.3333 14.9166 11.0833 17.1666 8.33329 17.1666Z" fill="#0052B4"/>
</svg>
