<svg width="24" height="24" viewBox="0 0 24 24" fill="none" xmlns="http://www.w3.org/2000/svg">
<path fill-rule="evenodd" clip-rule="evenodd" d="M0 12C0 5.37225 5.373 0 12 0C18.6278 0 24 5.37225 24 12C24 18.6278 18.6278 24 12 24C5.373 24 0 18.6278 0 12ZM7.23675 16.6688C7.0395 16.6688 6.8895 16.4925 6.92025 16.2983L8.47275 6.45075C8.514 6.19125 8.7375 6 9 6H12.7297C14.0145 6 15.0187 6.2715 15.5745 6.9045C16.0793 7.47975 16.2195 8.11425 16.0807 9.04875C16.0807 9.04875 16.0567 9.19275 16.0425 9.267C15.5505 11.7922 13.8675 12.6652 11.7188 12.6652H10.6245C10.362 12.6652 10.14 12.8565 10.0988 13.116L10.1167 13.0012L9.5385 16.6688H7.23675ZM17.0002 11.694C16.5697 13.9028 15.0982 14.667 13.218 14.667H12.9277C12.6975 14.667 12.5025 14.8343 12.4665 15.0608L12.4425 15.189L12.0772 17.5072L12.0577 17.6063C12.0225 17.8328 11.8267 18 11.5972 18H10.0057L10.737 13.329H11.7188C14.4233 13.329 16.1287 12.0135 16.6635 9.52725C17.0903 10.0642 17.1728 10.8075 17.0002 11.694Z" fill="url(#paint0_linear_2096_370)"/>
<defs>
<linearGradient id="paint0_linear_2096_370" x1="0" y1="0" x2="0" y2="24" gradientUnits="userSpaceOnUse">
<stop stop-color="#2958CE"/>
<stop offset="1" stop-color="#3F99D9"/>
</linearGradient>
</defs>
</svg>
