<svg width="25" height="27" viewBox="0 0 25 27" fill="none" xmlns="http://www.w3.org/2000/svg">
<path d="M14.0195 15.5307L14.0614 15.7263C16.6897 15.5381 18.9531 15.8286 20.8518 16.5978C22.7504 17.3671 23.8534 18.4688 24.1607 19.9029C24.2515 20.3266 24.1162 20.7391 23.7547 21.1404C23.3933 21.5417 22.907 21.8079 22.2959 21.9388C21.6848 22.0698 21.1321 22.0263 20.638 21.8083C20.1439 21.5903 19.8514 21.2695 19.7606 20.8458C19.6384 20.2754 19.1973 19.8202 18.4373 19.4802C17.6773 19.1402 16.7062 18.9521 15.5239 18.9156C14.3415 18.8792 13.0858 19.0034 11.7566 19.2883C10.4274 19.5731 9.231 19.9743 8.16742 20.492C7.10384 21.0097 6.29508 21.5793 5.74114 22.2008C5.1872 22.8224 4.97134 23.4183 5.09356 23.9887C5.18436 24.4124 5.04904 24.8249 4.6876 25.2262C4.32616 25.6275 3.83988 25.8937 3.22875 26.0246C2.61763 26.1556 2.06499 26.1121 1.57085 25.8941C1.07672 25.6761 0.784248 25.3553 0.693451 24.9316C0.38265 23.4812 0.936484 22.0202 2.35495 20.5487C3.77342 19.0771 5.71997 17.8887 8.19459 16.9834L8.15269 16.7879C8.06189 16.3642 8.12846 15.9664 8.35239 15.5946C8.57633 15.2227 8.88691 14.9942 9.28414 14.9091L8.61365 11.7801C8.52285 11.3564 8.58942 10.9586 8.81336 10.5868C9.03729 10.215 9.34788 9.98648 9.74511 9.90136C10.5549 9.72785 11.1807 9.27414 11.6227 8.54024C12.0647 7.80634 12.1931 7.00753 12.008 6.14381C11.8229 5.28008 11.3785 4.60404 10.6746 4.11569C9.97068 3.62733 9.21386 3.46991 8.40412 3.64343C7.59438 3.81694 6.96852 4.27065 6.52654 5.00455C6.08457 5.73845 5.95612 6.53726 6.14121 7.40098C6.232 7.8247 6.16925 8.22166 5.95296 8.59186C5.73666 8.96206 5.42608 9.19055 5.02121 9.2773C4.61634 9.36406 4.23558 9.28372 3.87895 9.03629C3.52231 8.78886 3.2986 8.45328 3.2078 8.02957C2.83763 6.30212 3.09452 4.7045 3.97847 3.2367C4.86243 1.76891 6.11414 0.861492 7.73363 0.51446C9.35311 0.167427 10.8667 0.482266 12.2745 1.45898C13.6823 2.43569 14.5713 3.78777 14.9414 5.51522C15.2487 6.94933 15.1104 8.31702 14.5263 9.61828C13.9422 10.9195 13.0469 11.8869 11.8404 12.5205L12.2176 14.2805C12.6301 14.1921 13.0108 14.2725 13.3598 14.5215C13.7088 14.7706 13.9287 15.107 14.0195 15.5307Z" fill="url(#paint0_linear_53_9376)"/>
<defs>
<linearGradient id="paint0_linear_53_9376" x1="-4.62859" y1="0.0954002" x2="20.9527" y2="-2.9145" gradientUnits="userSpaceOnUse">
<stop stop-color="#00326D"/>
<stop offset="0.474412" stop-color="#1179F5"/>
<stop offset="1" stop-color="#00326D"/>
</linearGradient>
</defs>
</svg>
