<svg width="24" height="24" viewBox="0 0 24 24" fill="none" xmlns="http://www.w3.org/2000/svg">
<circle cx="12.0005" cy="12.0005" r="11.9995" fill="#F3F2F2"/>
<path d="M8.88672 14.3023L9.80492 8.88037H11.2915L10.3733 14.3023H8.88672Z" fill="#293688"/>
<path d="M15.6653 9.02053C15.3707 8.91065 14.9091 8.79297 14.3327 8.79297C12.8636 8.79297 11.8287 9.52852 11.8198 10.5823C11.8116 11.3612 12.5585 11.7957 13.1228 12.0553C13.7014 12.3205 13.896 12.4907 13.8932 12.7277C13.8896 13.0912 13.4308 13.2573 13.0034 13.2573C12.4085 13.2571 12.0922 13.1751 11.604 12.9727L11.4124 12.8863L11.2036 14.1001C11.5509 14.2515 12.1932 14.3828 12.86 14.3894C14.4225 14.3891 15.4373 13.6626 15.4487 12.537C15.4544 11.9203 15.0582 11.4509 14.2005 11.0638C13.6807 10.8133 13.3624 10.646 13.3659 10.3918C13.3659 10.1665 13.6355 9.92552 14.2173 9.92552C14.7035 9.91792 15.0557 10.0233 15.3303 10.1332L15.4633 10.1957L15.6653 9.02053Z" fill="#293688"/>
<path fill-rule="evenodd" clip-rule="evenodd" d="M17.4297 9.34213C17.5863 8.98914 17.8436 8.88037 18.1998 8.88037L18.1998 8.88052H19.3368L20.561 14.3025H19.1617L18.987 13.4716H17.1065L16.8005 14.3025H15.2266L17.4297 9.34213ZM18.1162 10.8713C18.1162 10.8713 17.6469 12.0745 17.5241 12.3867V12.3869H18.7582L18.4141 10.8213L18.3135 10.3541C18.2734 10.4628 18.2174 10.607 18.1752 10.7156C18.1385 10.8103 18.1123 10.878 18.1162 10.8713Z" fill="#293688"/>
<path d="M6.17567 12.597L6.04473 11.8537C5.77341 10.9873 4.93137 10.0498 3.98779 9.58008L5.30122 14.3023H6.87553L9.23654 8.88037H7.66258L6.17567 12.597Z" fill="#293688"/>
<path d="M2.37109 8.88037V8.96792C4.23647 9.41657 5.53151 10.5508 6.04421 11.8538L5.50518 9.34309C5.4152 8.99998 5.14252 8.89232 4.81986 8.88042L2.37109 8.88037Z" fill="#F7981D"/>
<path d="M11.9994 23.9999C16.6309 23.9999 20.6467 21.3745 22.647 17.5322H1.35205C3.35247 21.3745 7.36815 23.9999 11.9994 23.9999Z" fill="#F7981D"/>
<path d="M11.9999 0C7.44193 0 3.4776 2.54118 1.44629 6.28423H22.5539C20.5223 2.54138 16.5578 0 11.9999 0Z" fill="#293688"/>
</svg>
